<svg xmlns="http://www.w3.org/2000/svg" viewBox="0 0 77.85 84.06"><defs><style>.cls-1{fill:#414042;}</style></defs><title>Asset 8</title><g id="Layer_2" data-name="Layer 2"><g id="Layer_1-2" data-name="Layer 1"><path class="cls-1" d="M41.37,1.07a3.32,3.32,0,0,0-4.88,0L.87,39.85a3.29,3.29,0,0,0,2.44,5.51H9.68L12.46,81a3.3,3.3,0,0,0,3.3,3H62A3.3,3.3,0,0,0,65.34,81L68,45.36h6.58A3.29,3.29,0,0,0,77,39.84Zm13.7,76.12a1.41,1.41,0,0,1-1.42,1.41H24.18a1.41,1.41,0,0,1-1.42-1.41V55.62A16.13,16.13,0,0,1,38.91,39.53h0A16.13,16.13,0,0,1,55.06,55.62V77.19Z"/></g></g></svg>