<svg xmlns="http://www.w3.org/2000/svg" viewBox="0 0 110.4 76"><defs><style>.cls-1{fill:#414042;}</style></defs><title>Asset 4</title><g id="Layer_2" data-name="Layer 2"><g id="Layer_1-2" data-name="Layer 1"><path class="cls-1" d="M38,32.58v13H59.54C58.67,51.21,53,62,38,62a24,24,0,0,1,0-48,21.37,21.37,0,0,1,15.13,5.85L63.43,9.93A36.46,36.46,0,0,0,38,0a38,38,0,0,0,0,76c21.92,0,36.47-15.41,36.47-37.13a34.73,34.73,0,0,0-.61-6.3H38Z"/><path class="cls-1" d="M110.4,31.48H99.2V20.29H88V31.48H76.82V42.68H88V53.87H99.2V42.68H110.4Z"/></g></g></svg>