<svg xmlns="http://www.w3.org/2000/svg" viewBox="0 0 67.99 84.06"><defs><style>.cls-1{fill:#414042;}</style></defs><title>Asset 9</title><g id="Layer_2" data-name="Layer 2"><g id="Layer_1-2" data-name="Layer 1"><path class="cls-1" d="M30.65,6.82C27.27,2.42,22.74,0,17.89,0S8.52,2.42,5.13,6.82A26.38,26.38,0,0,0,0,22.89,26.38,26.38,0,0,0,5.13,38.95a17.83,17.83,0,0,0,7,5.63V54.3L10.63,76a7.51,7.51,0,1,0,15,0L24,54.3V44.43a18,18,0,0,0,6.68-5.48,26.38,26.38,0,0,0,5.13-16.06A26.38,26.38,0,0,0,30.65,6.82ZM21.8,80a5,5,0,0,1-8.69-3.76l1.45-20.6h7l1.56,20.57A5,5,0,0,1,21.8,80ZM21.47,53.1H14.65V45.4a14.35,14.35,0,0,0,2.12.33h0l.39,0h1.33a14.36,14.36,0,0,0,3-.44V53.1Zm1-10.74-.22.09a12.17,12.17,0,0,1-2.14.62h0l-.49.08h0l-.52.06H19l-.43,0H17.29l-.36,0h-.12q-.48,0-1-.13h0L15.36,43h-.05a12.12,12.12,0,0,1-1.48-.43l-.17-.06C7.22,40,2.5,32.19,2.5,22.89,2.5,11.64,9.4,2.5,17.89,2.5s15.4,9.15,15.4,20.39C33.29,32,28.74,39.76,22.48,42.35Z"/><path class="cls-1" d="M68,23.21H61a32.82,32.82,0,0,0-.67-4.31L67,17.77l-.42-2.46-6.89,1.18A28.78,28.78,0,0,0,58.32,13L65,11.21,64.41,8.8l-7.22,1.9.06.21a20.36,20.36,0,0,0-3-4l6-1.3L59.8,3.19l-7.88,1.7v.05a12.27,12.27,0,0,0-1.46-.85A5.24,5.24,0,0,0,40.12,5.24V78.81a5.24,5.24,0,1,0,10.49,0V46.44a20.92,20.92,0,0,0,3.06-2.62l7.67,1.76.56-2.43-6.38-1.46A27.58,27.58,0,0,0,58,38L65,39.81l.64-2.41-6.6-1.74a26.13,26.13,0,0,0,1.17-3.36L67,33.46,67.43,31l-6.65-1.14a22.62,22.62,0,0,0,.32-3.73c0-.14,0-.28,0-.42H68v-2.5ZM48.11,78.81a2.75,2.75,0,1,1-5.49,0V55.59h5.49V78.81Zm0-25.72H42.62V43.94h5.49Zm0-11.65H42.62V5.24a2.75,2.75,0,0,1,5.49,0v36.2Zm2.5,1.84V7.06c4.66,3.21,8,10.94,8,19.08A23.61,23.61,0,0,1,50.61,43.29Z"/></g></g></svg>