<svg xmlns="http://www.w3.org/2000/svg" viewBox="0 0 69.41 84.06"><defs><style>.cls-1{fill:#414042;}</style></defs><title>Asset 10</title><g id="Layer_2" data-name="Layer 2"><g id="Layer_1-2" data-name="Layer 1"><path class="cls-1" d="M25.62,63.47a10.72,10.72,0,0,1-5.52-1.56c-.41-.26-.81-.56-1.18-.83a9.5,9.5,0,0,1-.93-.86,22.52,22.52,0,0,0-1.46-2c-.2,0-.41-.05-.61-.09a10.2,10.2,0,0,1-5.47-2.89,12.07,12.07,0,0,1-1-1.2L.15,72.34a1.35,1.35,0,0,0,1.37,1.95l11.86-1.45,6,10.53a1.34,1.34,0,0,0,2.37-.06l9.42-18.63a9.4,9.4,0,0,1-2.93-1.6A9.48,9.48,0,0,1,25.62,63.47Z"/><path class="cls-1" d="M60,54a11.24,11.24,0,0,1-1,1.2,10.1,10.1,0,0,1-5.49,2.89,5.64,5.64,0,0,1-.59.08c-.17,0-1.23,1.79-1.46,2a15.6,15.6,0,0,1-1.5,1.3c-.19.09-.4.26-.61.39a10.68,10.68,0,0,1-5.52,1.57,9.13,9.13,0,0,1-2.66-.39,9.51,9.51,0,0,1-2.93,1.6l9.42,18.63a1.34,1.34,0,0,0,2.37.06l6-10.53L67.9,74.29a1.35,1.35,0,0,0,1.37-1.95Z"/><path class="cls-1" d="M52.58,42.73a21.64,21.64,0,0,0,1.82-3.39A21.21,21.21,0,0,0,49.84,16,21.14,21.14,0,0,0,36.6,9.9c-.66-.05-1.33-.07-2-.07a21.21,21.21,0,0,0-8.27,1.67A21,21,0,0,0,19.59,16,21.28,21.28,0,0,0,15,22.8a21.35,21.35,0,0,0,0,16.53,21.36,21.36,0,0,0,4.56,6.76,21.15,21.15,0,0,0,13.87,6.2,23.55,23.55,0,0,0,2.49,0,21.14,21.14,0,0,0,13.88-6.2A21.79,21.79,0,0,0,52.58,42.73Zm-16.16-23c.76-2.63,3.06-4.27,5.14-3.67s3.15,3.22,2.39,5.84-3.06,4.27-5.14,3.67S35.67,22.33,36.42,19.71ZM27.87,16c2.08-.6,4.38,1,5.14,3.67s-.32,5.24-2.39,5.84-4.38-1-5.14-3.67S25.79,16.64,27.87,16ZM19.69,31.18c-1-2.53-.25-5.24,1.75-6.06s4.46.57,5.5,3.1.25,5.24-1.75,6.06S20.73,33.71,19.69,31.18ZM39.92,43.6a22.05,22.05,0,0,0-10-.11l-.46.11c-1.69.46-5.53-.31-4.77-3.84s4.15-3.38,5.08-8.14A5.65,5.65,0,0,1,31.93,28a5,5,0,0,1,4.12-.67,4.56,4.56,0,0,1,2.55,1.78,6.55,6.55,0,0,1,1,2.52c.93,4.77,4.31,4.61,5.08,8.14S41.61,44.06,39.92,43.6Zm4.31-9.32c-2-.82-2.79-3.53-1.75-6.06S46,24.3,48,25.12s2.79,3.53,1.75,6.06S46.23,35.1,44.23,34.28Z"/><path class="cls-1" d="M41,59.91a2.33,2.33,0,0,1,.8.14,7.21,7.21,0,0,0,8.49-3.53,2.4,2.4,0,0,1,2.08-1.38,7.21,7.21,0,0,0,6.52-6.48,2.36,2.36,0,0,1,1.36-2,7.21,7.21,0,0,0,3.51-8.5,2.4,2.4,0,0,1,.49-2.45,7.22,7.22,0,0,0,0-9.19,2.38,2.38,0,0,1-.48-2.4,7.21,7.21,0,0,0-3.53-8.49,2.4,2.4,0,0,1-1.38-2.08,6.87,6.87,0,0,0-2.1-4.43A6.87,6.87,0,0,0,52.41,7a2.36,2.36,0,0,1-2-1.36,6.91,6.91,0,0,0-3.6-3.26,7.54,7.54,0,0,0-2.86-.59,6.13,6.13,0,0,0-2,.33,2.44,2.44,0,0,1-.83.14,2.37,2.37,0,0,1-1.63-.63A6.85,6.85,0,0,0,34.8,0h-.19A6.83,6.83,0,0,0,30,1.65a2.43,2.43,0,0,1-1.63.63,2.39,2.39,0,0,1-.82-.14,6.09,6.09,0,0,0-2-.33,7.38,7.38,0,0,0-2.86.59A6.87,6.87,0,0,0,19,5.66,2.38,2.38,0,0,1,17,7,6.87,6.87,0,0,0,12.64,9.1a6.87,6.87,0,0,0-2.1,4.43,2.43,2.43,0,0,1-1.38,2.08A7.21,7.21,0,0,0,5.63,24.1a2.38,2.38,0,0,1-.48,2.4,7.21,7.21,0,0,0,0,9.19,2.43,2.43,0,0,1,.49,2.45,7.21,7.21,0,0,0,3.51,8.5,2.38,2.38,0,0,1,1.36,2,7.21,7.21,0,0,0,6.52,6.48,2.43,2.43,0,0,1,2.08,1.38,5.56,5.56,0,0,0,.33.59l.16.24a7.27,7.27,0,0,0,8,2.7,2.29,2.29,0,0,1,.8-.14,2.4,2.4,0,0,1,1.6.61,6.84,6.84,0,0,0,4.66,1.62,6.75,6.75,0,0,0,4.68-1.62A2.41,2.41,0,0,1,41,59.91ZM34.8,55.4a24.72,24.72,0,0,1-9.66-1.91,24.47,24.47,0,0,1-10.87-9.07,24.89,24.89,0,0,1-2.08-3.89,24.29,24.29,0,0,1,5.22-26.68,24.26,24.26,0,0,1,14.22-7,25.43,25.43,0,0,1,3.17-.18A24.22,24.22,0,0,1,52,13.85a24.48,24.48,0,0,1,5.22,7.73,24.42,24.42,0,0,1,0,18.95,23.49,23.49,0,0,1-2.08,3.89A24.67,24.67,0,0,1,52,48.27a24.42,24.42,0,0,1-7.74,5.22,24.16,24.16,0,0,1-8.17,1.88C35.67,55.38,35.24,55.4,34.8,55.4Z"/></g></g></svg>