<svg xmlns="http://www.w3.org/2000/svg" viewBox="0 0 60.73 75"><defs><style>.cls-1{fill:#414042;}</style></defs><title>Asset 5</title><g id="Layer_2" data-name="Layer 2"><g id="Layer_1-2" data-name="Layer 1"><path class="cls-1" d="M37.46,47.86c-1.27,1.28-.2,3.6-.2,3.6l9.53,15.91s1.56,2.1,2.92,2.1a5,5,0,0,0,2.71-1.12L60,57.58A6.5,6.5,0,0,0,60.73,55c0-1.69-2.52-2.16-2.52-2.16L40.37,47.15A3.24,3.24,0,0,0,37.46,47.86Zm-.9-8c.91,1.55,3.43,1.1,3.43,1.1l17.79-5.2s2.42-1,2.77-2.3a5.09,5.09,0,0,0-.4-2.9l-8.5-10a3.07,3.07,0,0,0-2.27-1.39C47.69,19,46.66,21,46.66,21L36.6,36.84A3.25,3.25,0,0,0,36.55,39.84Zm-8.41-6.17c2.1-.52,2.43-3.56,2.43-3.56L30.43,4.78s-.32-3.12-1.72-4C26.51-.53,25.86.17,25.23.26L10.45,5.75a4.58,4.58,0,0,0-2.2,1.69c-1.08,1.71,1.09,4.21,1.09,4.21L24.7,32.58A3.92,3.92,0,0,0,28.15,33.67ZM24.5,43.93c.05-2-2.35-3.13-2.35-3.13l-15.88-8s-2.35-1-3.5-.29a3.45,3.45,0,0,0-1.73,2.28L0,47.49A7.58,7.58,0,0,0,.44,50.7c.81,1.42,3.47.43,3.47.43L22.45,47c.72-.48,2-.53,2.05-3.11Zm4.61,6.87c-1.59-.82-3.5.88-3.5.88L13.2,65.34S11.65,67.43,12,68.71a3.31,3.31,0,0,0,1.85,2.22l12.47,3.94a6.57,6.57,0,0,0,2.66,0c1.62-.47,1.33-3,1.33-3l.28-18.5A3.16,3.16,0,0,0,29.11,50.8Z"/></g></g></svg>